<svg width="50" height="51" viewBox="0 0 50 51" fill="none" xmlns="http://www.w3.org/2000/svg">
<rect x="0.5" y="0.900391" width="49" height="49" rx="4.5" stroke="#EEEEEE"/>
<path d="M26.1594 17.716L23.1317 17.7287C23.1317 17.7287 23.2468 30.671 23.2468 30.8663C23.2468 31.2675 23.1514 31.6447 22.9917 31.9868C22.9727 32.0287 22.947 32.0661 22.9258 32.1065C22.8721 32.2075 22.8198 32.3078 22.754 32.4006C22.7502 32.4066 22.7449 32.4111 22.7404 32.4164C22.2491 33.099 21.4468 33.5473 20.5347 33.5473C19.4379 33.5473 18.7809 32.9216 18.7393 32.8901C18.3677 32.6125 17.9877 31.9112 17.9877 31.9112C17.2906 32.8505 16.1574 32.7577 15.4565 32.8205L16.5639 34.28C17.5706 35.6078 19.1745 36.4004 20.8534 36.4004C23.8091 36.4004 26.2146 34.0218 26.2146 31.0923L26.1594 17.716Z" fill="#EEEEEE"/>
<path d="M34.8715 36.2919C32.5356 36.2919 30.0007 35.3466 28.0342 33.6476L30.0272 31.3933C31.8733 32.989 34.4393 33.6895 36.2687 33.093C37.1725 32.7988 37.7273 32.2203 37.9158 31.3738C38.3336 29.4974 35.6723 28.3186 33.0132 27.4137C32.6953 27.3052 32.4297 27.2139 32.2366 27.1375C30.9453 26.6263 29.4103 25.2192 29.0939 23.3369C28.9009 22.1925 29.0901 20.471 31.0876 18.7721C35.0743 15.3823 40.568 19.3214 40.8012 19.4906L39.0058 21.9013C38.9672 21.8737 35.2151 19.2069 33.0624 21.0414C32.3161 21.6761 31.9853 22.2831 32.08 22.8451C32.1965 23.539 32.9118 24.1796 33.3614 24.3578C33.5196 24.4199 33.7384 24.494 33.9995 24.5831C36.1673 25.321 41.9267 27.282 40.8723 32.0175C40.4492 33.9155 39.1511 35.3069 37.2156 35.9371C36.4799 36.1766 35.6882 36.2919 34.8715 36.2919Z" fill="#EEEEEE"/>
<path d="M20.3 27.6621C20.8155 26.6989 21.1107 25.6024 21.1107 24.4385C21.1107 20.6207 17.9702 17.5153 14.1092 17.5153H9V31.3617H14.1092C15.4361 31.3617 16.6729 30.9883 17.7311 30.3521C17.8544 28.9659 18.9217 27.859 20.3 27.6621ZM14.1092 28.3679H12.0277V20.5091H14.1092C16.3005 20.5091 18.083 22.2718 18.083 24.4385C18.083 26.6053 16.3005 28.3679 14.1092 28.3679Z" fill="#EEEEEE"/>
<path d="M20.3538 32.1102C21.3989 32.1102 22.2461 31.2725 22.2461 30.2391C22.2461 29.2057 21.3989 28.3679 20.3538 28.3679C19.3087 28.3679 18.4615 29.2057 18.4615 30.2391C18.4615 31.2725 19.3087 32.1102 20.3538 32.1102Z" fill="#EEEEEE"/>
</svg>
