<svg width="50" height="51" viewBox="0 0 50 51" fill="none" xmlns="http://www.w3.org/2000/svg">
<rect x="0.5" y="0.900391" width="49" height="49" rx="4.5" stroke="#D3D3D3"/>
<path fill-rule="evenodd" clip-rule="evenodd" d="M25.213 10.855H27.3048V13.6457C28.0847 13.6457 28.8646 13.646 29.6445 13.6464C32.3897 13.6476 35.1347 13.6488 37.8797 13.6351C37.966 13.6386 38.0536 13.6407 38.1418 13.6429C38.662 13.6556 39.205 13.6688 39.6475 13.97C39.9583 14.4124 39.9719 14.9574 39.9848 15.4775C39.987 15.5643 39.9891 15.6503 39.9926 15.7351C39.9773 21.0566 39.9809 26.3755 39.9845 31.694L39.9859 33.8955C39.9809 34.1839 39.9864 34.4739 39.992 34.7643C40.0059 35.4964 40.0199 36.2311 39.8662 36.948C39.7289 37.6552 38.8891 37.6896 38.302 37.7136L38.2567 37.7154C36.315 37.7209 34.3723 37.7186 32.4292 37.7163C30.7213 37.7142 29.0131 37.7122 27.3048 37.7154V40.855H25.1178C21.5933 40.2203 18.0642 39.6174 14.5346 39.0144C12.6897 38.6993 10.8446 38.3841 9 38.0643V13.6493C10.7852 13.3417 12.5704 13.0356 14.3555 12.7295C17.9755 12.1088 21.5951 11.4882 25.213 10.855ZM27.3048 14.6921H38.9258V36.6689H27.3048V34.5759H30.122V32.134H27.3048V30.7386H30.122V28.2968H27.3048V26.9014H30.122V24.4596H27.3048V23.0642H30.122V20.6224H27.3048V19.227H30.122V16.7852H27.3048V14.6921ZM36.4606 16.7852H31.5305V19.227H36.4606V16.7852ZM19.4305 20.0537C20.2264 19.9979 21.0259 19.949 21.8251 19.9108C20.8863 21.8207 19.9391 23.7264 18.9834 25.6281C19.4993 26.6685 20.0209 27.7049 20.5427 28.7416C21.0006 29.6513 21.4588 30.5617 21.913 31.4746C21.0653 31.4264 20.2179 31.3729 19.3708 31.3141C19.1896 30.8737 18.9964 30.4378 18.8031 30.0018C18.3581 28.9977 17.913 27.9932 17.6134 26.9327C17.3244 27.7879 16.9607 28.6138 16.597 29.4396C16.3584 29.9815 16.1198 30.5234 15.9023 31.0736C15.1309 31.063 14.3596 31.0317 13.5885 31.0002C13.9046 30.3872 14.2169 29.7724 14.5293 29.1576C15.1109 28.0128 15.6928 26.8674 16.2998 25.7327C15.8294 24.666 15.3316 23.6116 14.8338 22.5571C14.4932 21.8357 14.1525 21.1141 13.8206 20.3886C14.5954 20.3431 15.3701 20.2979 16.1448 20.256C16.2807 20.6094 16.42 20.9617 16.5592 21.314C16.9573 22.3212 17.3556 23.3288 17.6768 24.3653C18.0013 23.3299 18.4376 22.337 18.8741 21.3438C19.0625 20.915 19.251 20.486 19.4305 20.0537ZM36.4606 20.6225H31.5305V23.0643H36.4606V20.6225ZM36.4606 24.4597H31.5305V26.9016H36.4606V24.4597ZM36.4606 28.2969H31.5305V30.7388H36.4606V28.2969ZM36.4606 32.1341H31.5305V34.576H36.4606V32.1341Z" fill="#F7F7FA"/>
</svg>
