<svg width="50" height="51" viewBox="0 0 50 51" fill="none" xmlns="http://www.w3.org/2000/svg">
<rect x="0.5" y="0.900391" width="49" height="49" rx="4.5" stroke="#EEEEEE"/>
<path d="M23.8 9.40039V19.1395H18.9C16.2015 19.1395 14 16.9517 14 14.27C14 11.5882 16.2015 9.40039 18.9 9.40039H23.8ZM23.8 20.5308V30.27H18.9C16.2015 30.27 14 28.0821 14 25.4004C14 22.7187 16.2015 20.5308 18.9 20.5308H23.8ZM23.8 31.6613V36.5308C23.8 39.2126 21.5985 41.4004 18.9 41.4004C16.2015 41.4004 14 39.2126 14 36.5308C14 33.8491 16.2015 31.6613 18.9 31.6613H23.8ZM35 14.27C35 16.9517 32.7985 19.1395 30.1 19.1395H25.2V9.40039H30.1C32.7985 9.40039 35 11.5882 35 14.27ZM30.1 20.5308C28.8004 20.5308 27.5541 21.0439 26.6352 21.9571C25.7162 22.8703 25.2 24.1089 25.2 25.4004C25.2 26.6919 25.7162 27.9305 26.6352 28.8437C27.5541 29.7569 28.8004 30.27 30.1 30.27C31.3996 30.27 32.6459 29.7569 33.5648 28.8437C34.4838 27.9305 35 26.6919 35 25.4004C35 24.1089 34.4838 22.8703 33.5648 21.9571C32.6459 21.0439 31.3996 20.5308 30.1 20.5308Z" fill="#EEEEEE"/>
</svg>
