<svg width="50" height="51" viewBox="0 0 50 51" fill="none" xmlns="http://www.w3.org/2000/svg">
<rect x="0.5" y="0.900391" width="49" height="49" rx="4.5" stroke="#EEEEEE"/>
<path d="M26.949 10.4004C28.6306 14.3463 20.9204 16.7831 20.2038 20.0701C19.547 23.0907 24.785 26.6005 24.7898 26.6005C23.9944 25.3506 23.4092 24.3212 22.6115 22.3761C21.2619 19.0867 30.8304 16.1097 26.949 10.4004ZM32.0701 15.865C32.0701 15.865 25.3057 16.3059 24.9618 20.6902C24.8089 22.6425 26.7412 23.6696 26.7962 25.089C26.8416 26.2493 25.6497 27.2206 25.6497 27.2206C25.6497 27.2206 27.8185 26.8016 28.4968 25.0309C29.2492 23.0664 27.0303 21.739 27.2548 20.167C27.4697 18.6628 32.0701 15.865 32.0701 15.865ZM21.4459 25.9998C21.4459 25.9998 15.2548 25.9102 15.2548 27.6857C15.2548 29.5412 23.3591 29.6792 29.1465 28.5384C29.1465 28.5384 30.6847 27.4653 31.0955 27.0656C27.3025 27.8504 18.6561 27.9376 18.6561 27.2594C18.6561 26.6345 21.4459 25.9998 21.4459 25.9998ZM33.3503 25.9998C32.7436 26.0483 32.0892 26.2856 31.4968 26.7168C32.8917 26.4116 34.0764 27.2885 34.0764 28.2864C34.0764 30.5343 30.8662 32.6465 30.8662 32.6465C30.8662 32.6465 35.8344 32.0749 35.8344 28.3833C35.8344 26.7071 34.6855 25.8932 33.3503 25.9998ZM19.9554 29.4491C19.0048 29.4491 17.586 30.2049 17.586 30.9219C17.586 32.3631 24.7325 33.4725 30.0255 31.3676L28.1911 30.2243C24.6035 31.3894 17.9968 31.0091 19.9554 29.4491ZM20.8344 32.6853C19.5326 32.6853 18.6752 33.4822 18.6752 34.0805C18.6752 35.9311 26.4498 36.1176 29.5287 34.2355L27.5796 32.976C25.2795 33.9618 19.5064 34.112 20.8344 32.6853ZM16.4968 34.3518C14.3758 34.3082 13 35.2747 13 36.0765C13 40.3397 34.707 40.1435 34.707 35.7858C34.707 35.0615 33.883 34.7103 33.5796 34.5456C35.3543 38.7119 15.8089 38.38 15.8089 35.9214C15.8089 35.3619 17.2468 34.8266 18.5796 35.0882L17.4522 34.4293C17.1202 34.3785 16.8002 34.3591 16.4968 34.3518ZM37 37.2198C33.699 40.393 25.3344 41.5435 16.9172 39.5839C25.332 43.0768 36.9594 41.1172 37 37.2198Z" fill="#EEEEEE"/>
</svg>
