<svg width="50" height="51" viewBox="0 0 50 51" fill="none" xmlns="http://www.w3.org/2000/svg">
<rect x="0.5" y="0.900391" width="49" height="49" rx="4.5" stroke="#EEEEEE"/>
<path d="M28.2859 28.686V39.4639C28.2859 41.118 27.6597 41.5432 26.5716 41.5432C25.4332 41.5432 24.643 40.8334 24.1207 39.9126L21.4287 41.5432C22.2088 43.1938 24.1207 44.9718 26.7725 44.9718C29.7055 44.9718 31.7144 43.4115 31.7144 39.9863V28.686H28.2859ZM38.96 28.686C36.0403 28.686 34.1687 30.5543 34.1687 33.0086C34.1687 35.6704 35.739 36.9293 38.0995 37.9338L38.9164 38.2854C40.4064 38.9383 41.143 39.3367 41.143 40.4584C41.143 41.3925 40.4332 42.0688 39.0771 42.0688C37.4633 42.0688 36.6999 40.974 36.0001 39.8289L33.4287 41.5432C34.3896 43.4416 36.114 44.9718 39.1508 44.9718C42.258 44.9718 44.5716 43.3579 44.5716 40.4148C44.5716 37.6827 43.0046 36.4673 40.2222 35.2753L39.4053 34.9271C38.0024 34.3177 37.393 33.9226 37.393 32.9416C37.393 32.1481 38.0024 31.5387 38.96 31.5387C39.9008 31.5387 40.5035 31.9372 41.0626 32.9416L43.6106 31.3077C42.5359 29.4092 41.0392 28.686 38.96 28.686Z" fill="#EEEEEE"/>
</svg>
