<svg width="50" height="51" viewBox="0 0 50 51" fill="none" xmlns="http://www.w3.org/2000/svg">
<rect x="0.5" y="0.900391" width="49" height="49" rx="4.5" stroke="#EEEEEE"/>
<path d="M17.2537 35.5466C17.0468 35.5466 16.8627 35.5337 16.7068 35.5092V36.2063C17.027 36.3357 17.2919 36.4004 17.5087 36.4004C18.3204 36.4004 19.0684 35.8973 19.7512 34.8868C20.6239 33.5788 21.3294 31.4789 21.8649 28.5926H20.6182C20.4188 30.2728 20.0216 31.9227 19.4353 33.507C19.475 33.2066 19.3772 32.6791 19.1449 31.923L18.115 28.5926H16.8258L18.2623 33.047C18.4791 33.7154 18.5882 34.161 18.5882 34.3795C18.5882 34.6942 18.4493 34.9788 18.1702 35.2332C17.9379 35.4402 17.6333 35.5466 17.2537 35.5466Z" fill="#EEEEEE"/>
<path d="M35.5993 26.5472V34.3507H39.3251V33.3905H36.853V26.5472H35.5993Z" fill="#EEEEEE"/>
<path d="M9.47333 28.1269H9.4875L11.4708 34.3507H12.4696L14.4671 28.1269H14.4784C14.6963 30.1948 14.824 32.2714 14.8609 34.3507H16.1784C16.0973 31.7413 15.895 29.1373 15.5721 26.5472H14.0208L12.1126 32.2823H12.1012L10.21 26.5472H8.58083C8.25954 29.137 8.06569 31.7414 8 34.3507H9.19708C9.23533 32.0682 9.32741 29.994 9.47333 28.1269Z" fill="#EEEEEE"/>
<path d="M34.4618 30.3031C34.4618 27.7216 33.4447 26.4279 31.4089 26.4279C30.4116 26.4279 29.6324 26.7556 29.0714 27.4111C28.4623 28.1283 28.1563 29.1834 28.1563 30.579C28.1563 31.9503 28.4254 32.9579 28.9694 33.5989C29.4653 34.1782 30.2118 34.4671 31.212 34.4671C31.586 34.4671 31.9288 34.4211 32.2391 34.3291L34.1162 35.4186L34.6262 34.5419H34.6219L33.1826 33.8361C33.3101 33.7283 33.4333 33.6133 33.5438 33.484C34.1572 32.7681 34.4618 31.7074 34.4618 30.3031ZM31.3409 33.5012C30.7105 33.5012 30.2501 33.2655 29.9554 32.7955L29.9583 32.7883C29.6395 32.2809 29.4808 31.4616 29.4808 30.339C29.4808 28.3727 30.0815 27.3895 31.28 27.3895C31.9076 27.3895 32.3708 27.6253 32.6641 28.0953C32.9814 28.6055 33.1401 29.4162 33.1401 30.5273C33.1401 32.508 32.5394 33.5012 31.3409 33.5012ZM26.6999 30.5445C26.6999 30.5445 25.5751 29.902 25.0183 29.5988C24.4064 29.2595 24.0749 28.8614 24.0749 28.4C24.076 28.258 24.1081 28.1179 24.1688 27.99C24.2296 27.862 24.3174 27.7492 24.4262 27.6597C24.6415 27.4643 24.9518 27.3694 25.3527 27.3694C25.8471 27.3694 26.35 27.4786 26.86 27.6942L27.1618 27.023C26.5703 26.6384 25.8809 26.4375 25.1784 26.4452C24.4701 26.4452 23.8964 26.6378 23.4501 27.0302C23.0067 27.4183 22.7843 27.9257 22.7843 28.561C22.7843 29.3242 23.0818 29.7885 23.6796 30.2226C23.6796 30.2226 24.7775 30.8493 25.3272 31.1497C25.9193 31.4817 26.2452 31.877 26.2452 32.3427C26.2475 32.5113 26.2102 32.678 26.1363 32.829C26.0624 32.98 25.954 33.1109 25.8202 33.2109C25.551 33.4178 25.1813 33.5213 24.7109 33.5213C24.2052 33.5213 23.6456 33.369 23.0251 33.0585L22.6894 33.7297C23.4104 34.2141 24.1485 34.457 24.9178 34.457C25.7408 34.457 26.3911 34.2458 26.8784 33.8217C27.3658 33.3991 27.6094 32.8544 27.6094 32.1903L27.6179 32.1946C27.6179 31.4343 27.3133 30.9757 26.6999 30.5445Z" fill="#EEEEEE"/>
<path d="M31.2403 15.7311C31.0774 15.7311 30.9669 15.7512 30.8521 15.7771V15.7958H30.872C30.9485 15.9424 31.0788 16.0502 31.1751 16.181C31.2516 16.3319 31.3168 16.4828 31.3933 16.6323L31.4131 16.6108C31.5463 16.5173 31.6115 16.3678 31.6115 16.1407C31.5548 16.0746 31.5463 16.0085 31.4981 15.9438C31.4415 15.849 31.3196 15.803 31.2431 15.7282L31.2403 15.7311Z" fill="#EEEEEE"/>
<path d="M41.5679 26.4135C41.2886 26.0476 40.9567 25.7264 40.5833 25.4606C40.2802 25.255 39.6172 24.9661 39.4925 24.6211L39.4741 24.601C39.6809 24.5823 39.9274 24.5076 40.1258 24.4515C40.4473 24.3667 40.742 24.3854 41.0749 24.3021C41.2251 24.2647 41.3767 24.2172 41.5282 24.1698V24.085C41.3582 23.9154 41.2308 23.6854 41.0551 23.5273C40.564 23.0999 40.0411 22.7116 39.4911 22.3659C39.1936 22.1762 38.8168 22.0554 38.5037 21.8945C38.3903 21.8384 38.2005 21.8097 38.1353 21.7148C37.9653 21.5093 37.8662 21.2347 37.7458 20.9889C37.4738 20.47 37.2074 19.8951 36.9708 19.3475C36.8008 18.9781 36.6974 18.6101 36.4892 18.2709C35.5117 16.6668 34.4534 15.6937 32.8257 14.7436C32.4758 14.5467 32.0564 14.4619 31.613 14.3569C31.3764 14.3454 31.1399 14.3282 30.9047 14.3181C30.7489 14.252 30.5987 14.0723 30.4655 13.9861C29.9272 13.6469 28.5332 12.9138 28.1365 13.884C27.8815 14.4964 28.5148 15.1 28.7344 15.4105C28.8973 15.6261 29.1027 15.8733 29.216 16.1163C29.2826 16.2801 29.301 16.4483 29.3676 16.6193C29.5178 17.0347 29.6609 17.4961 29.8592 17.8857C29.9626 18.0826 30.0759 18.291 30.2091 18.4678C30.2856 18.5713 30.4159 18.6187 30.4457 18.7883C30.3125 18.9809 30.304 19.2598 30.2275 19.4941C29.8875 20.562 30.0207 21.883 30.5024 22.6692C30.6539 22.9035 31.0152 23.4224 31.4983 23.224C31.9233 23.0544 31.8298 22.5183 31.9516 22.0454C31.9799 21.9318 31.9615 21.8571 32.0196 21.7809V21.8025C32.1528 22.0684 32.2859 22.3199 32.4078 22.5858C32.6996 23.0487 33.2096 23.5287 33.636 23.8493C33.8627 24.0189 34.0426 24.3121 34.3259 24.417V24.3883H34.3047C34.2438 24.3064 34.163 24.2676 34.0865 24.2C33.907 24.025 33.7413 23.8362 33.5907 23.6351C33.192 23.0925 32.8381 22.5175 32.5324 21.916C32.3766 21.6199 32.2463 21.3008 32.1216 21.009C32.0649 20.8969 32.0649 20.7273 31.97 20.6698C31.8284 20.8754 31.6201 21.055 31.5167 21.3095C31.3368 21.7162 31.3184 22.215 31.2504 22.7353C31.2121 22.7454 31.2305 22.7353 31.2121 22.7554C30.9089 22.6821 30.8055 22.3688 30.6922 22.1058C30.4089 21.4359 30.3621 20.3594 30.6072 19.5861C30.6738 19.3891 30.9571 18.7653 30.8438 18.5756C30.7843 18.3959 30.5973 18.2939 30.4939 18.1487C30.3612 17.9598 30.2473 17.7581 30.1539 17.5464C29.9272 17.0189 29.8139 16.4339 29.5674 15.9064C29.454 15.6621 29.2557 15.4062 29.0942 15.182C28.9143 14.9276 28.7159 14.7493 28.5729 14.4475C28.5261 14.344 28.4595 14.1729 28.5346 14.0608C28.5544 13.9846 28.5941 13.9545 28.6678 13.9343C28.7924 13.8323 29.1424 13.966 29.2656 14.022C29.6155 14.1629 29.9102 14.2951 30.2034 14.4935C30.3366 14.5869 30.4797 14.7651 30.6497 14.8126H30.848C31.1512 14.8787 31.4926 14.8327 31.7759 14.9161C32.2789 15.077 32.7322 15.3113 33.1388 15.5657C34.3867 16.3575 35.4058 17.4704 36.0925 18.7912C36.2058 19.0082 36.2554 19.208 36.3588 19.4337C36.5572 19.8994 36.8023 20.3694 37.0034 20.8193C37.2018 21.2635 37.393 21.7177 37.6778 22.0856C37.8194 22.2826 38.3889 22.386 38.6439 22.4895C38.8323 22.5743 39.1256 22.652 39.2956 22.7554C39.6214 22.9524 39.9388 23.1795 40.2448 23.3965C40.4006 23.5043 40.8723 23.74 40.9007 23.9298C40.1428 23.9096 39.5548 23.9858 39.0633 24.1957C38.9216 24.2517 38.6949 24.2517 38.6751 24.4314C38.753 24.5062 38.7643 24.6283 38.8309 24.7333C38.9443 24.9216 39.1398 25.1745 39.3211 25.3082C39.5194 25.4634 39.7178 25.6129 39.926 25.7452C40.2943 25.9708 40.7123 26.1045 41.0735 26.3316C41.2789 26.4638 41.4886 26.632 41.6968 26.7729C41.8002 26.8433 41.8668 26.9712 42 27.0158V26.9885C41.9348 26.9037 41.915 26.7815 41.8512 26.6866C41.7563 26.5918 41.6614 26.507 41.5679 26.4135Z" fill="#EEEEEE"/>
</svg>
