<svg width="50" height="51" viewBox="0 0 50 51" fill="none" xmlns="http://www.w3.org/2000/svg">
<rect x="0.5" y="0.900391" width="49" height="49" rx="4.5" stroke="#EEEEEE"/>
<mask id="path-2-inside-1_493_229" fill="white">
<path d="M18.9 18.6578L19.7917 18.0138C19.5124 17.627 19.0155 17.4644 18.5616 17.6112C18.1076 17.758 17.8 18.1807 17.8 18.6578H18.9ZM25.5 39.5578C17.6023 39.5578 11.2 33.1556 11.2 25.2578H9C9 34.3704 16.3873 41.7578 25.5 41.7578V39.5578ZM39.8 25.2578C39.8 33.1556 33.3978 39.5578 25.5 39.5578V41.7578C34.6126 41.7578 42 34.3704 42 25.2578H39.8ZM25.5 10.9578C33.3978 10.9578 39.8 17.3601 39.8 25.2578H42C42 16.1451 34.6126 8.75781 25.5 8.75781V10.9578ZM25.5 8.75781C16.3873 8.75781 9 16.1451 9 25.2578H11.2C11.2 17.3601 17.6023 10.9578 25.5 10.9578V8.75781ZM20 35.1578V18.6578H17.8V35.1578H20ZM18.0083 19.3019L32.3083 39.1018L34.0917 37.8139L19.7917 18.0138L18.0083 19.3019ZM31 17.5578V30.7578H33.2V17.5578H31Z"/>
</mask>
<path d="M18.9 18.6578L19.7917 18.0138C19.5124 17.627 19.0155 17.4644 18.5616 17.6112C18.1076 17.758 17.8 18.1807 17.8 18.6578H18.9ZM25.5 39.5578C17.6023 39.5578 11.2 33.1556 11.2 25.2578H9C9 34.3704 16.3873 41.7578 25.5 41.7578V39.5578ZM39.8 25.2578C39.8 33.1556 33.3978 39.5578 25.5 39.5578V41.7578C34.6126 41.7578 42 34.3704 42 25.2578H39.8ZM25.5 10.9578C33.3978 10.9578 39.8 17.3601 39.8 25.2578H42C42 16.1451 34.6126 8.75781 25.5 8.75781V10.9578ZM25.5 8.75781C16.3873 8.75781 9 16.1451 9 25.2578H11.2C11.2 17.3601 17.6023 10.9578 25.5 10.9578V8.75781ZM20 35.1578V18.6578H17.8V35.1578H20ZM18.0083 19.3019L32.3083 39.1018L34.0917 37.8139L19.7917 18.0138L18.0083 19.3019ZM31 17.5578V30.7578H33.2V17.5578H31Z" fill="black"/>
<path d="M11.2 -1.40885H9V51.9245H11.2V-1.40885ZM52.1667 41.7578V39.5578H-1.16667V41.7578H52.1667ZM42 -1.40885H39.8V51.9245H42V-1.40885ZM-1.16667 8.75781V10.9578H52.1667V8.75781H-1.16667ZM18.9 18.6578V71.9911H36.1458L50.1265 61.8938L18.9 18.6578ZM19.7917 18.0138L63.0281 -13.2122L63.0273 -13.2134L19.7917 18.0138ZM18.5616 17.6112L2.15346 -33.1354L2.15196 -33.135L18.5616 17.6112ZM20 35.1578V88.4911H73.3333V35.1578H20ZM20 18.6578H73.3333V-34.6755H20V18.6578ZM17.8 35.1578H-35.5333V88.4911H17.8V35.1578ZM18.0083 19.3019L-13.2182 -23.9342L-56.4542 7.29227L-25.2278 50.5283L18.0083 19.3019ZM32.3083 39.1018L-10.9277 70.3282L20.2977 113.563L63.5333 82.3388L32.3083 39.1018ZM34.0917 37.8139L65.3166 81.051L108.555 49.8253L77.3281 6.58795L34.0917 37.8139ZM31 17.5578V-35.7755H-22.3333V17.5578H31ZM31 30.7578H-22.3333V84.0911H31V30.7578ZM33.2 30.7578V84.0911H86.5333V30.7578H33.2ZM33.2 17.5578H86.5333V-35.7755H33.2V17.5578ZM50.1265 61.8938L51.0182 61.2498L-11.4347 -25.2222L-12.3265 -24.5782L50.1265 61.8938ZM63.0273 -13.2134C49.2037 -32.3527 24.6181 -40.399 2.15346 -33.1354L34.9697 68.3578C13.413 75.3278 -10.1789 67.6067 -23.4438 49.2409L63.0273 -13.2134ZM2.15196 -33.135C-20.3125 -25.8707 -35.5333 -4.95274 -35.5333 18.6578H71.1333C71.1333 41.3141 56.5276 61.3866 34.9712 68.3573L2.15196 -33.135ZM17.8 71.9911H18.9V-34.6755H17.8V71.9911ZM25.5 -13.7755C47.0572 -13.7755 64.5333 3.70014 64.5333 25.2578H-42.1333C-42.1333 62.611 -11.8526 92.8911 25.5 92.8911V-13.7755ZM-44.3333 25.2578C-44.3333 63.8254 -13.0681 95.0911 25.5 95.0911V-11.5755C45.8427 -11.5755 62.3333 4.91543 62.3333 25.2578H-44.3333ZM-13.5333 25.2578C-13.5333 3.70041 3.94259 -13.7755 25.5 -13.7755V92.8911C62.853 92.8911 93.1333 62.6108 93.1333 25.2578H-13.5333ZM25.5 95.0911C64.0678 95.0911 95.3333 63.8256 95.3333 25.2578H-11.3333C-11.3333 4.91525 5.15743 -11.5755 25.5 -11.5755V95.0911ZM25.5 64.2911C3.94233 64.2911 -13.5333 46.8151 -13.5333 25.2578H93.1333C93.1333 -12.0948 62.8532 -42.3755 25.5 -42.3755V64.2911ZM95.3333 25.2578C95.3333 -13.3103 64.0676 -44.5755 25.5 -44.5755V62.0911C5.15762 62.0911 -11.3333 45.6005 -11.3333 25.2578H95.3333ZM25.5 -44.5755C-13.0679 -44.5755 -44.3333 -13.3101 -44.3333 25.2578H62.3333C62.3333 45.6003 45.8425 62.0911 25.5 62.0911V-44.5755ZM64.5333 25.2578C64.5333 46.8153 47.0575 64.2911 25.5 64.2911V-42.3755C-11.8529 -42.3755 -42.1333 -12.095 -42.1333 25.2578H64.5333ZM73.3333 35.1578V18.6578H-33.3333V35.1578H73.3333ZM20 -34.6755H17.8V71.9911H20V-34.6755ZM-35.5333 18.6578V35.1578H71.1333V18.6578H-35.5333ZM17.8 88.4911H20V-18.1755H17.8V88.4911ZM-25.2278 50.5283L-10.9277 70.3282L75.5444 7.87535L61.2443 -11.9245L-25.2278 50.5283ZM63.5333 82.3388L65.3166 81.051L2.86669 -5.42321L1.08337 -4.13533L63.5333 82.3388ZM77.3281 6.58795L63.0281 -13.2122L-23.4446 49.2397L-9.14474 69.0398L77.3281 6.58795ZM-11.4347 -25.2222L-13.2182 -23.9342L49.2347 62.5379L51.0182 61.2498L-11.4347 -25.2222ZM-22.3333 17.5578V30.7578H84.3333V17.5578H-22.3333ZM31 84.0911H33.2V-22.5755H31V84.0911ZM86.5333 30.7578V17.5578H-20.1333V30.7578H86.5333ZM33.2 -35.7755H31V70.8911H33.2V-35.7755Z" fill="#EEEEEE" mask="url(#path-2-inside-1_493_229)"/>
</svg>
