<svg width="50" height="51" viewBox="0 0 50 51" fill="none" xmlns="http://www.w3.org/2000/svg">
<rect x="0.5" y="0.900391" width="49" height="49" rx="4.5" stroke="#EEEEEE"/>
<path d="M25.5 11.4004C24.9518 11.4004 24.4047 11.544 23.9172 11.8312L14.5422 17.3418C13.5901 17.8994 13 18.9314 13 20.0321V32.171C13 33.3133 13.6234 34.3628 14.6276 34.9101L17.6997 36.5844C18.1726 36.8424 18.6846 36.9664 19.1971 36.9664C19.7471 36.9664 20.2902 36.8188 20.7881 36.5275C21.7464 35.9595 22.318 34.9565 22.318 33.8413V20.6417H20.2347V33.8413C20.2347 34.376 19.8802 34.6458 19.7261 34.7353C19.574 34.8248 19.1654 35.0116 18.6966 34.7556L15.6286 33.0854C15.2932 32.9023 15.0833 32.5518 15.0833 32.171V20.0321C15.0833 19.6659 15.2794 19.3213 15.596 19.134L24.971 13.6233C25.296 13.4319 25.704 13.434 26.029 13.6233L35.404 19.134C35.7186 19.3213 35.9167 19.6659 35.9167 20.0321V32.1791C35.9167 32.5536 35.7088 32.9062 35.3755 33.0935L26.0005 38.1937C25.688 38.3601 25.312 38.3601 24.9995 38.1937L23.1685 37.194C22.8143 37.6309 22.375 38.0076 21.8542 38.3197C21.6875 38.4237 21.5203 38.5051 21.3537 38.5676L23.9985 40.0224C24.4777 40.2721 24.9792 40.4004 25.5 40.4004C26.0208 40.4004 26.5223 40.2721 27.0015 40.0224L36.3765 34.906C37.3765 34.365 38 33.3235 38 32.1791V20.0321C38 18.9314 37.4119 17.8994 36.4619 17.3418L27.0869 11.8312C26.5984 11.544 26.0482 11.4004 25.5 11.4004ZM28.5233 20.3369C25.2316 20.3369 23.5632 21.4828 23.5632 23.7425C23.5632 26.3017 26.5145 26.6825 27.9333 26.8635C28.1374 26.8906 28.3185 26.9137 28.4622 26.9407L29.0848 27.0505C31.2515 27.4125 31.75 27.6579 31.75 28.355C31.75 28.6921 31.7483 29.7123 28.5233 29.7123C25.7879 29.7123 25.2274 28.9017 25.2274 27.6844H23.144C23.144 29.5612 24.0774 31.793 28.5233 31.793C32.9108 31.793 33.8333 29.9238 33.8333 28.355C33.8333 25.7374 31.2869 25.3083 29.4307 24.9941L28.8325 24.8925C28.6596 24.8613 28.4415 24.8323 28.1978 24.8031C26.8728 24.6325 25.6465 24.3874 25.6465 23.7465C25.6465 23.2825 25.6441 22.4197 28.5233 22.4176C30.4379 22.4176 31.4123 23.0469 31.4123 24.287H33.4956C33.4956 22.379 32.1858 20.3369 28.5233 20.3369Z" fill="#EEEEEE"/>
</svg>
