<svg width="50" height="51" viewBox="0 0 50 51" fill="none" xmlns="http://www.w3.org/2000/svg">
<rect x="0.5" y="0.900391" width="49" height="49" rx="4.5" stroke="#EEEEEE"/>
<path d="M36.777 20.4378C36.4139 20.3135 36.0377 20.1959 35.6503 20.0847C35.714 19.8263 35.7724 19.5712 35.8244 19.3205C36.6773 15.2033 36.1196 11.8865 34.2155 10.7945C32.3896 9.74737 29.4035 10.8392 26.3877 13.4492C26.0977 13.7002 25.8069 13.966 25.5162 14.2444C25.3225 14.0602 25.1291 13.8821 24.9363 13.7118C21.7756 10.9209 18.6076 9.74482 16.7052 10.84C14.8811 11.8902 14.3409 15.0083 15.1086 18.9102C15.1828 19.287 15.2694 19.6719 15.3674 20.0632C14.919 20.1898 14.4862 20.3247 14.072 20.4683C10.3665 21.7531 8 23.7667 8 25.8552C8 28.0124 10.5405 30.176 14.4 31.4879C14.7046 31.5914 15.0207 31.6893 15.3464 31.7823C15.2406 32.2055 15.1487 32.6202 15.0715 33.0247C14.3395 36.8589 14.9111 39.9033 16.7304 40.9469C18.6095 42.0245 21.7633 40.9168 24.8342 38.2473C25.0769 38.0362 25.3205 37.8125 25.5645 37.5779C25.8808 37.8808 26.1966 38.1675 26.5107 38.4363C29.4853 40.9819 32.4232 42.0098 34.2407 40.9634C36.118 39.8827 36.7281 36.6122 35.936 32.6331C35.8755 32.3292 35.8052 32.0188 35.7261 31.7028C35.9476 31.6377 36.165 31.5704 36.377 31.5006C40.3894 30.1785 43 28.0412 43 25.8552C43 23.7591 40.5572 21.732 36.777 20.4378ZM35.9068 30.0891C35.7154 30.1521 35.519 30.2131 35.3189 30.2721C34.876 28.8775 34.2781 27.3946 33.5465 25.8625C34.2447 24.3669 34.8194 22.9029 35.2499 21.5174C35.608 21.6204 35.9555 21.7291 36.2903 21.8438C39.5292 22.9526 41.5048 24.592 41.5048 25.8552C41.5048 27.2008 39.3712 28.9475 35.9068 30.0891ZM34.4693 32.9219C34.8195 34.6814 34.8695 36.2722 34.6375 37.5157C34.4291 38.6332 34.0099 39.3782 33.4915 39.6766C32.3885 40.3115 30.0297 39.4862 27.4859 37.3092C27.1942 37.0596 26.9005 36.7932 26.6058 36.5111C27.592 35.4385 28.5777 34.1915 29.5396 32.8066C31.2316 32.6573 32.8302 32.4132 34.2798 32.0799C34.3512 32.3663 34.4146 32.6472 34.4693 32.9219ZM19.9323 39.5669C18.8546 39.9454 17.9963 39.9562 17.4775 39.6587C16.3735 39.0254 15.9145 36.581 16.5406 33.3021C16.6123 32.9265 16.6976 32.5408 16.796 32.1465C18.2298 32.4618 19.8166 32.6887 21.5126 32.8254C22.4811 34.1806 23.4952 35.4262 24.5172 36.5169C24.2939 36.7313 24.0715 36.9353 23.8503 37.1277C22.4924 38.3081 21.1316 39.1456 19.9323 39.5669ZM14.8836 30.0809C13.177 29.5008 11.7676 28.7469 10.8015 27.9241C9.9334 27.1848 9.49513 26.4508 9.49513 25.8552C9.49513 24.5878 11.3952 22.9712 14.5642 21.8724C14.9487 21.7391 15.3512 21.6134 15.7689 21.4954C16.2069 22.9122 16.7814 24.3935 17.4748 25.8914C16.7725 27.4116 16.1898 28.9165 15.7475 30.3499C15.4497 30.2648 15.1612 30.1752 14.8836 30.0809ZM16.576 18.6246C15.9182 15.2816 16.3551 12.7597 17.4543 12.1269C18.6252 11.4528 21.2145 12.414 23.9434 14.8237C24.1179 14.9778 24.293 15.139 24.4686 15.3057C23.4517 16.3917 22.4469 17.6279 21.487 18.9751C19.841 19.1268 18.2653 19.3706 16.8166 19.6969C16.7255 19.3326 16.6448 18.9746 16.576 18.6246ZM31.6734 22.332C31.3271 21.7371 30.9715 21.1563 30.6091 20.5913C31.7258 20.7317 32.7957 20.918 33.8005 21.1461C33.4988 22.1075 33.1228 23.1128 32.6803 24.1433C32.3628 23.5439 32.027 22.9395 31.6734 22.332ZM25.5167 16.3684C26.2064 17.1115 26.897 17.941 27.5763 18.8411C26.8918 18.809 26.1988 18.7923 25.5 18.7923C24.8079 18.7923 24.1199 18.8086 23.4396 18.8402C24.1196 17.9485 24.8163 17.12 25.5167 16.3684ZM19.3206 22.3423C18.9746 22.9389 18.6451 23.54 18.3326 24.1422C17.8972 23.1152 17.5247 22.1054 17.2204 21.1304C18.219 20.9081 19.2839 20.7264 20.3935 20.5887C20.0259 21.1589 19.6675 21.7441 19.3206 22.3423ZM20.4255 31.2279C19.279 31.1007 18.1981 30.9283 17.1998 30.7122C17.5089 29.7198 17.8896 28.6884 18.3342 27.6393C18.6475 28.2411 18.9784 28.8425 19.3265 29.4403C19.681 30.0494 20.0484 30.6461 20.4255 31.2279ZM25.5581 35.4469C24.8494 34.6865 24.1426 33.8454 23.4522 32.9407C24.1224 32.9668 24.8056 32.9802 25.5 32.9802C26.2134 32.9802 26.9186 32.9642 27.6128 32.9335C26.9312 33.8545 26.243 34.6969 25.5581 35.4469ZM32.6945 27.5859C33.1623 28.6462 33.5567 29.6722 33.8698 30.6478C32.855 30.878 31.7594 31.0635 30.6049 31.2012C30.9683 30.6287 31.3269 30.0378 31.6794 29.4301C32.0359 28.8153 32.3744 28.1995 32.6945 27.5859ZM30.3842 28.6873C29.8371 29.6307 29.2754 30.5313 28.7052 31.3814C27.6666 31.4552 26.5936 31.4932 25.5 31.4932C24.4108 31.4932 23.3514 31.4596 22.3311 31.3937C21.7379 30.5325 21.164 29.6292 20.6204 28.6954C20.0782 27.7641 19.5793 26.8249 19.1271 25.8909C19.5792 24.9548 20.0769 24.0146 20.616 23.0849L20.6158 23.0851C21.1564 22.153 21.7252 21.2541 22.3129 20.3983C23.3538 20.32 24.4212 20.2792 25.4999 20.2792C26.5835 20.2792 27.6523 20.3203 28.6929 20.3993C29.2717 21.2489 29.8367 22.1448 30.3793 23.0771C30.9281 24.0198 31.4322 24.9538 31.8881 25.8698C31.4336 26.8016 30.9306 27.745 30.3842 28.6873ZM33.4686 12.0827C34.6406 12.7548 35.0964 15.4657 34.3601 19.0204C34.3131 19.2472 34.2602 19.4782 34.2027 19.7124C32.7507 19.3792 31.1739 19.1312 29.523 18.9772C28.5613 17.6152 27.5647 16.377 26.5643 15.3051C26.8333 15.0478 27.1018 14.8024 27.3693 14.5709C29.9532 12.3346 32.3683 11.4517 33.4686 12.0827ZM25.5 22.7471C27.2261 22.7471 28.6254 24.1386 28.6254 25.8552C28.6254 27.5718 27.2261 28.9634 25.5 28.9634C23.7739 28.9634 22.3746 27.5718 22.3746 25.8552C22.3746 24.1386 23.7739 22.7471 25.5 22.7471Z" fill="#EEEEEE"/>
</svg>
