<svg width="50" height="51" viewBox="0 0 50 51" fill="none" xmlns="http://www.w3.org/2000/svg">
<rect x="0.5" y="0.900391" width="49" height="49" rx="4.5" stroke="#D3D3D3"/>
<path d="M26.4596 32.1797C19.7239 37.934 14.9407 38.3398 12.4912 35.8882C10.2342 33.6312 12.106 27.9701 16.6676 22.3794L8 13.7139H13.5389L22.1486 22.3235C16.7152 27.79 13.5472 33.6105 15.1851 35.2484C16.5413 36.6067 20.7157 34.7245 25.2193 30.9394L26.4596 32.1797Z" fill="#F7F7FA"/>
<path d="M36.7216 36.9047L28.1119 28.2951C33.5452 22.8307 36.7133 17.0081 35.0775 15.3723C33.7212 14.014 29.5427 15.8982 25.0391 19.6833L23.7988 18.443C30.5366 12.6867 35.3218 12.2788 37.7714 14.7304C40.0284 16.9874 38.1586 22.6484 33.5949 28.2392L42.2626 36.9047H36.7216Z" fill="#F7F7FA"/>
</svg>
