<svg width="50" height="51" viewBox="0 0 50 51" fill="none" xmlns="http://www.w3.org/2000/svg">
<rect x="0.5" y="0.900391" width="49" height="49" rx="4.5" stroke="#EEEEEE"/>
<path d="M24 29.4004V32.1204H27.8886V44.4004H30.9995V32.1204H34.8881V29.4004H24ZM40.8699 29.4081C38.4476 29.3983 35.6795 30.1435 35.6795 33.6037C35.6795 38.1274 41.6841 38.1285 41.6841 40.1693C41.6841 40.3627 41.7649 41.7683 39.6456 41.7683C37.5263 41.7683 35.76 40.416 35.76 40.416V43.6988C35.76 43.6988 45 46.7325 45 39.8918C44.9992 35.451 38.9392 35.6731 38.9392 33.4665C38.9392 32.6115 39.5376 31.812 41.1949 31.812C42.8523 31.812 44.3195 32.805 44.3195 32.805L44.4289 29.8799C44.4289 29.8799 42.7539 29.4157 40.8699 29.4081Z" fill="#EEEEEE"/>
</svg>
