<svg width="50" height="51" viewBox="0 0 50 51" fill="none" xmlns="http://www.w3.org/2000/svg">
<rect x="0.5" y="0.900391" width="49" height="49" rx="4.5" stroke="#EEEEEE"/>
<path fill-rule="evenodd" clip-rule="evenodd" d="M25 14.7578C20.1994 14.7578 17.2006 17.2016 16 22.0911C17.8 19.6473 19.9006 18.7306 22.3 19.3411C23.6698 19.6897 24.649 20.7023 25.7308 21.8219C27.4966 23.646 29.5396 25.7578 34 25.7578C38.8006 25.7578 41.7994 23.314 43 18.4245C41.2 20.8683 39.1012 21.785 36.7 21.1745C35.3302 20.8259 34.351 19.8133 33.2674 18.6938C31.5034 16.8678 29.4622 14.7578 25 14.7578ZM16 25.7578C11.1994 25.7578 8.2006 28.2016 7 33.0911C8.8 30.6455 10.9006 29.7306 13.3 30.3411C14.6698 30.6897 15.649 31.7023 16.7326 32.8219C18.4966 34.646 20.5396 36.7578 25.0018 36.7578C29.8024 36.7578 32.8012 34.314 34.0018 29.4245C32.2018 31.8683 30.1012 32.785 27.7018 32.1745C26.332 31.8259 25.3528 30.8133 24.271 29.6938C22.5034 27.8696 20.4604 25.7578 16 25.7578Z" fill="#EEEEEE"/>
</svg>
